<?xml version="1.0" encoding="UTF-8" standalone="no"?>
<!DOCTYPE svg PUBLIC "-//W3C//DTD SVG 1.1//EN"
 "http://www.w3.org/Graphics/SVG/1.1/DTD/svg11.dtd">
<!-- Generated by graphviz version 2.44.0 (0)
 -->
<!-- Pages: 1 -->
<svg width="496pt" height="407pt"
 viewBox="0.00 0.00 496.00 407.49" xmlns="http://www.w3.org/2000/svg" xmlns:xlink="http://www.w3.org/1999/xlink">
<g id="graph0" class="graph" transform="scale(1 1) rotate(0) translate(4 403.49)">
<polygon fill="white" stroke="transparent" points="-4,4 -4,-403.49 492,-403.49 492,4 -4,4"/>
<g id="clust2" class="cluster">
<title>cluster_clo</title>
<polygon fill="none" stroke="black" points="70,-313.49 70,-391.49 480,-391.49 480,-313.49 70,-313.49"/>
<text text-anchor="middle" x="275" y="-374.69" font-family="helvetica" font-size="16.00">Cluster Logging Operator</text>
</g>
<g id="clust3" class="cluster">
<title>cluster_elo</title>
<polygon fill="none" stroke="black" points="8,-204.49 8,-282.49 278,-282.49 278,-204.49 8,-204.49"/>
<text text-anchor="middle" x="143" y="-265.69" font-family="helvetica" font-size="16.00">Elasticsearch Operator</text>
</g>
<!-- cl -->
<g id="node1" class="node">
<title>cl</title>
<polygon fill="orchid" stroke="black" points="238.11,-339.49 198.05,-357.49 117.95,-357.49 77.89,-339.49 117.95,-321.49 198.05,-321.49 238.11,-339.49"/>
<text text-anchor="middle" x="158" y="-335.79" font-family="helvetica" font-size="14.00">ClusterLogging</text>
</g>
<!-- es -->
<g id="node3" class="node">
<title>es</title>
<polygon fill="orchid" stroke="black" points="163.6,-230.49 126.8,-248.49 53.2,-248.49 16.4,-230.49 53.2,-212.49 126.8,-212.49 163.6,-230.49"/>
<text text-anchor="middle" x="90" y="-226.79" font-family="helvetica" font-size="14.00">Elasticsearch</text>
</g>
<!-- cl&#45;&gt;es -->
<g id="edge2" class="edge">
<title>cl&#45;&gt;es</title>
<path fill="none" stroke="black" d="M147.07,-321.3C136.07,-303.98 118.96,-277.06 106.34,-257.2"/>
<polygon fill="black" stroke="black" points="109.22,-255.2 100.9,-248.64 103.31,-258.96 109.22,-255.2"/>
<text text-anchor="middle" x="155" y="-293.89" font-family="helvetica" font-size="12.00">creates</text>
</g>
<!-- kb -->
<g id="node4" class="node">
<title>kb</title>
<polygon fill="orchid" stroke="black" points="270.06,-230.49 248.03,-248.49 203.97,-248.49 181.94,-230.49 203.97,-212.49 248.03,-212.49 270.06,-230.49"/>
<text text-anchor="middle" x="226" y="-226.79" font-family="helvetica" font-size="14.00">Kibana</text>
</g>
<!-- cl&#45;&gt;kb -->
<g id="edge3" class="edge">
<title>cl&#45;&gt;kb</title>
<path fill="none" stroke="black" d="M168.93,-321.3C179.93,-303.98 197.04,-277.06 209.66,-257.2"/>
<polygon fill="black" stroke="black" points="212.69,-258.96 215.1,-248.64 206.78,-255.2 212.69,-258.96"/>
<text text-anchor="middle" x="208" y="-293.89" font-family="helvetica" font-size="12.00">creates</text>
</g>
<!-- fd -->
<g id="node5" class="node">
<title>fd</title>
<polygon fill="cyan" stroke="black" points="400.5,-256.99 293.5,-256.99 293.5,-203.99 400.5,-203.99 400.5,-256.99"/>
<text text-anchor="middle" x="347" y="-241.79" font-family="helvetica" font-size="14.00">Fluentd</text>
<text text-anchor="middle" x="347" y="-226.79" font-family="helvetica" font-size="14.00">Daemonset</text>
<text text-anchor="middle" x="347" y="-211.79" font-family="helvetica" font-size="14.00">(Pod per node)</text>
</g>
<!-- cl&#45;&gt;fd -->
<g id="edge4" class="edge">
<title>cl&#45;&gt;fd</title>
<path fill="none" stroke="black" d="M200.32,-322.36C224.9,-312.27 256.04,-298.22 282,-282.49 291.2,-276.91 300.6,-270.23 309.27,-263.56"/>
<polygon fill="black" stroke="black" points="311.65,-266.14 317.35,-257.2 307.32,-260.64 311.65,-266.14"/>
<text text-anchor="middle" x="286" y="-293.89" font-family="helvetica" font-size="12.00">creates</text>
</g>
<!-- clf -->
<g id="node2" class="node">
<title>clf</title>
<polygon fill="orchid" stroke="black" points="472.14,-339.49 418.07,-357.49 309.93,-357.49 255.86,-339.49 309.93,-321.49 418.07,-321.49 472.14,-339.49"/>
<text text-anchor="middle" x="364" y="-335.79" font-family="helvetica" font-size="14.00">ClusterLogForwarder</text>
</g>
<!-- clf&#45;&gt;fd -->
<g id="edge1" class="edge">
<title>clf&#45;&gt;fd</title>
<path fill="none" stroke="black" d="M361.27,-321.3C358.95,-306.71 355.55,-285.31 352.65,-267.05"/>
<polygon fill="black" stroke="black" points="356.08,-266.35 351.06,-257.02 349.17,-267.45 356.08,-266.35"/>
<text text-anchor="middle" x="386" y="-293.89" font-family="helvetica" font-size="12.00">configures</text>
</g>
<!-- store -->
<g id="node6" class="node">
<title>store</title>
<path fill="beige" stroke="black" d="M171,-150.34C171,-152.98 158.9,-155.12 144,-155.12 129.1,-155.12 117,-152.98 117,-150.34 117,-150.34 117,-107.39 117,-107.39 117,-104.75 129.1,-102.61 144,-102.61 158.9,-102.61 171,-104.75 171,-107.39 171,-107.39 171,-150.34 171,-150.34"/>
<path fill="none" stroke="black" d="M171,-150.34C171,-147.71 158.9,-145.57 144,-145.57 129.1,-145.57 117,-147.71 117,-150.34"/>
<text text-anchor="middle" x="144" y="-132.67" font-family="helvetica" font-size="14.00">Log</text>
<text text-anchor="middle" x="144" y="-117.67" font-family="helvetica" font-size="14.00">Store</text>
</g>
<!-- es&#45;&gt;store -->
<g id="edge5" class="edge">
<title>es&#45;&gt;store</title>
<path fill="none" stroke="black" d="M99.41,-212.14C106.53,-198.99 116.55,-180.51 125.28,-164.4"/>
<polygon fill="black" stroke="black" points="128.56,-165.7 130.25,-155.24 122.4,-162.36 128.56,-165.7"/>
<text text-anchor="middle" x="142.5" y="-176.39" font-family="helvetica" font-size="12.00">controls</text>
</g>
<!-- ui -->
<g id="node7" class="node">
<title>ui</title>
<ellipse fill="aliceblue" stroke="black" cx="180" cy="-26.87" rx="72.25" ry="26.74"/>
<text text-anchor="middle" x="180" y="-30.67" font-family="helvetica" font-size="14.00">Kibana</text>
<text text-anchor="middle" x="180" y="-15.67" font-family="helvetica" font-size="14.00">User Interface</text>
</g>
<!-- kb&#45;&gt;ui -->
<g id="edge6" class="edge">
<title>kb&#45;&gt;ui</title>
<path fill="none" stroke="black" d="M225.13,-212.05C223.27,-182.52 217.7,-121.11 202,-71.74 201.02,-68.65 199.84,-65.52 198.56,-62.41"/>
<polygon fill="black" stroke="black" points="201.73,-60.95 194.42,-53.28 195.36,-63.84 201.73,-60.95"/>
<text text-anchor="middle" x="243" y="-125.77" font-family="helvetica" font-size="12.00">provides</text>
</g>
<!-- ui&#45;&gt;store -->
<g id="edge7" class="edge">
<title>ui&#45;&gt;store</title>
<path fill="none" stroke="black" d="M165.25,-53.35C162.22,-59.26 159.27,-65.61 157,-71.74 154.55,-78.36 152.46,-85.59 150.72,-92.59"/>
<polygon fill="black" stroke="black" points="147.25,-92.07 148.42,-102.6 154.07,-93.63 147.25,-92.07"/>
<text text-anchor="middle" x="179.5" y="-75.14" font-family="helvetica" font-size="12.00">browses</text>
</g>
</g>
</svg>
