<?xml version="1.0" encoding="UTF-8" standalone="no"?>
<!DOCTYPE svg PUBLIC "-//W3C//DTD SVG 1.1//EN"
 "http://www.w3.org/Graphics/SVG/1.1/DTD/svg11.dtd">
<!-- Generated by graphviz version 2.40.1 (0)
 -->
<!-- Title: %3 Pages: 1 -->
<svg width="244pt" height="44pt"
 viewBox="0.00 0.00 243.77 44.00" xmlns="http://www.w3.org/2000/svg" xmlns:xlink="http://www.w3.org/1999/xlink">
<g id="graph0" class="graph" transform="scale(1 1) rotate(0) translate(4 40)">
<title>%3</title>
<polygon fill="#ffffff" stroke="transparent" points="-4,4 -4,-40 239.7691,-40 239.7691,4 -4,4"/>
<!-- API -->
<g id="node1" class="node">
<title>API</title>
<polygon fill="#da70d6" stroke="#000000" points="58.309,-18 43.789,-36 14.7491,-36 .2291,-18 14.7491,0 43.789,0 58.309,-18"/>
<text text-anchor="middle" x="29.2691" y="-14.3" font-family="Helvetica,sans-Serif" font-size="14.00" fill="#000000">API</text>
</g>
<!-- Container -->
<g id="node2" class="node">
<title>Container</title>
<polygon fill="#00ffff" stroke="#000000" points="162.2691,-36 76.2691,-36 76.2691,0 162.2691,0 162.2691,-36"/>
<text text-anchor="middle" x="119.2691" y="-14.3" font-family="Helvetica,sans-Serif" font-size="14.00" fill="#000000">Container</text>
</g>
<!-- Store -->
<g id="node3" class="node">
<title>Store</title>
<path fill="#f5f5dc" stroke="#000000" d="M235.7691,-32.7273C235.7691,-34.5331 223.4431,-36 208.2691,-36 193.095,-36 180.7691,-34.5331 180.7691,-32.7273 180.7691,-32.7273 180.7691,-3.2727 180.7691,-3.2727 180.7691,-1.4669 193.095,0 208.2691,0 223.4431,0 235.7691,-1.4669 235.7691,-3.2727 235.7691,-3.2727 235.7691,-32.7273 235.7691,-32.7273"/>
<path fill="none" stroke="#000000" d="M235.7691,-32.7273C235.7691,-30.9214 223.4431,-29.4545 208.2691,-29.4545 193.095,-29.4545 180.7691,-30.9214 180.7691,-32.7273"/>
<text text-anchor="middle" x="208.2691" y="-14.3" font-family="Helvetica,sans-Serif" font-size="14.00" fill="#000000">Store</text>
</g>
</g>
</svg>
