<?xml version="1.0" encoding="UTF-8" standalone="no"?>
<!DOCTYPE svg PUBLIC "-//W3C//DTD SVG 1.1//EN"
 "http://www.w3.org/Graphics/SVG/1.1/DTD/svg11.dtd">
<!-- Generated by graphviz version 2.44.0 (0)
 -->
<!-- Pages: 1 -->
<svg width="231pt" height="44pt"
 viewBox="0.00 0.00 230.52 44.00" xmlns="http://www.w3.org/2000/svg" xmlns:xlink="http://www.w3.org/1999/xlink">
<g id="graph0" class="graph" transform="scale(1 1) rotate(0) translate(4 40)">
<polygon fill="white" stroke="transparent" points="-4,4 -4,-40 226.52,-40 226.52,4 -4,4"/>
<!-- API -->
<g id="node1" class="node">
<title>API</title>
<polygon fill="orchid" stroke="black" points="57.06,-18 42.79,-36 14.25,-36 -0.02,-18 14.25,0 42.79,0 57.06,-18"/>
<text text-anchor="middle" x="28.52" y="-14.3" font-family="helvetica" font-size="14.00">API</text>
</g>
<!-- Container -->
<g id="node2" class="node">
<title>Container</title>
<polygon fill="cyan" stroke="black" points="150.02,-36 75.02,-36 75.02,0 150.02,0 150.02,-36"/>
<text text-anchor="middle" x="112.52" y="-14.3" font-family="helvetica" font-size="14.00">Container</text>
</g>
<!-- Store -->
<g id="node3" class="node">
<title>Store</title>
<path fill="beige" stroke="black" d="M222.52,-32.73C222.52,-34.53 210.42,-36 195.52,-36 180.62,-36 168.52,-34.53 168.52,-32.73 168.52,-32.73 168.52,-3.27 168.52,-3.27 168.52,-1.47 180.62,0 195.52,0 210.42,0 222.52,-1.47 222.52,-3.27 222.52,-3.27 222.52,-32.73 222.52,-32.73"/>
<path fill="none" stroke="black" d="M222.52,-32.73C222.52,-30.92 210.42,-29.45 195.52,-29.45 180.62,-29.45 168.52,-30.92 168.52,-32.73"/>
<text text-anchor="middle" x="195.52" y="-14.3" font-family="helvetica" font-size="14.00">Store</text>
</g>
</g>
</svg>
