<?xml version="1.0" encoding="UTF-8" standalone="no"?>
<!DOCTYPE svg PUBLIC "-//W3C//DTD SVG 1.1//EN"
 "http://www.w3.org/Graphics/SVG/1.1/DTD/svg11.dtd">
<!-- Generated by graphviz version 2.40.1 (0)
 -->
<!-- Title: %3 Pages: 1 -->
<svg width="284pt" height="452pt"
 viewBox="0.00 0.00 284.00 452.25" xmlns="http://www.w3.org/2000/svg" xmlns:xlink="http://www.w3.org/1999/xlink">
<g id="graph0" class="graph" transform="scale(1 1) rotate(0) translate(4 448.25)">
<title>%3</title>
<polygon fill="#ffffff" stroke="transparent" points="-4,4 -4,-448.25 280,-448.25 280,4 -4,4"/>
<g id="clust1" class="cluster">
<title>cluster_node</title>
<polygon fill="none" stroke="#000000" points="62,-77 62,-436.25 268,-436.25 268,-77 62,-77"/>
<text text-anchor="middle" x="165" y="-419.45" font-family="Helvetica,sans-Serif" font-size="16.00" fill="#000000">Node</text>
</g>
<!-- Logs -->
<g id="node1" class="node">
<title>Logs</title>
<path fill="#f5f5dc" stroke="#000000" d="M205,-257.6028C205,-260.2363 184.3821,-262.3756 159,-262.3756 133.6179,-262.3756 113,-260.2363 113,-257.6028 113,-257.6028 113,-214.6472 113,-214.6472 113,-212.0137 133.6179,-209.8744 159,-209.8744 184.3821,-209.8744 205,-212.0137 205,-214.6472 205,-214.6472 205,-257.6028 205,-257.6028"/>
<path fill="none" stroke="#000000" d="M205,-257.6028C205,-254.9692 184.3821,-252.8299 159,-252.8299 133.6179,-252.8299 113,-254.9692 113,-257.6028"/>
<text text-anchor="middle" x="159" y="-239.925" font-family="Helvetica,sans-Serif" font-size="14.00" fill="#000000">Node Logs</text>
<text text-anchor="middle" x="159" y="-224.925" font-family="Helvetica,sans-Serif" font-size="14.00" fill="#000000">/var/log/...</text>
</g>
<!-- Fluentd -->
<g id="node4" class="node">
<title>Fluentd</title>
<polygon fill="#00ffff" stroke="#000000" points="215,-123 103,-123 103,-85 215,-85 215,-123"/>
<text text-anchor="middle" x="159" y="-107.8" font-family="Helvetica,sans-Serif" font-size="14.00" fill="#000000">Fluentd</text>
<text text-anchor="middle" x="159" y="-92.8" font-family="Helvetica,sans-Serif" font-size="14.00" fill="#000000">(DaemonSet)</text>
</g>
<!-- Logs&#45;&gt;Fluentd -->
<g id="edge3" class="edge">
<title>Logs&#45;&gt;Fluentd</title>
<path fill="none" stroke="#000000" d="M159,-209.7051C159,-187.6012 159,-156.1013 159,-133.2426"/>
<polygon fill="#000000" stroke="#000000" points="162.5001,-133.104 159,-123.104 155.5001,-133.1041 162.5001,-133.104"/>
<text text-anchor="middle" x="173" y="-163.4" font-family="Helvetica,sans-Serif" font-size="12.00" fill="#000000">read</text>
</g>
<!-- Container -->
<g id="node2" class="node">
<title>Container</title>
<polygon fill="#00ffff" stroke="#000000" points="259.5,-402.25 164.5,-402.25 164.5,-349.25 259.5,-349.25 259.5,-402.25"/>
<text text-anchor="middle" x="212" y="-387.05" font-family="Helvetica,sans-Serif" font-size="14.00" fill="#000000">Application</text>
<text text-anchor="middle" x="212" y="-372.05" font-family="Helvetica,sans-Serif" font-size="14.00" fill="#000000">Container</text>
<text text-anchor="middle" x="212" y="-357.05" font-family="Helvetica,sans-Serif" font-size="14.00" fill="#000000">(CRI&#45;O)</text>
</g>
<!-- Container&#45;&gt;Logs -->
<g id="edge1" class="edge">
<title>Container&#45;&gt;Logs</title>
<path fill="none" stroke="#000000" d="M201.9064,-349.159C193.6176,-327.3229 181.7985,-296.1861 172.663,-272.1192"/>
<polygon fill="#000000" stroke="#000000" points="175.8771,-270.7241 169.0561,-262.617 169.3328,-273.2083 175.8771,-270.7241"/>
<text text-anchor="middle" x="203.5" y="-302.65" font-family="Helvetica,sans-Serif" font-size="12.00" fill="#000000">write</text>
</g>
<!-- Journald -->
<g id="node3" class="node">
<title>Journald</title>
<polygon fill="#f0f8ff" stroke="#000000" points="146,-393.75 70,-393.75 70,-357.75 146,-357.75 146,-393.75"/>
<text text-anchor="middle" x="108" y="-372.05" font-family="Helvetica,sans-Serif" font-size="14.00" fill="#000000">Journald</text>
</g>
<!-- Journald&#45;&gt;Logs -->
<g id="edge2" class="edge">
<title>Journald&#45;&gt;Logs</title>
<path fill="none" stroke="#000000" d="M114.6674,-357.4965C122.5548,-335.9026 135.8736,-299.4391 145.8583,-272.1035"/>
<polygon fill="#000000" stroke="#000000" points="149.2264,-273.0838 149.3698,-262.4899 142.6513,-270.6821 149.2264,-273.0838"/>
<text text-anchor="middle" x="151.5" y="-302.65" font-family="Helvetica,sans-Serif" font-size="12.00" fill="#000000">write</text>
</g>
<!-- es -->
<g id="node5" class="node">
<title>es</title>
<polygon fill="#f0f8ff" stroke="#000000" points="110,-36 0,-36 0,0 110,0 110,-36"/>
<text text-anchor="middle" x="55" y="-14.3" font-family="Helvetica,sans-Serif" font-size="14.00" fill="#000000">Elasticsearch</text>
</g>
<!-- Fluentd&#45;&gt;es -->
<g id="edge4" class="edge">
<title>Fluentd&#45;&gt;es</title>
<path fill="none" stroke="#000000" d="M135.919,-84.9138C120.937,-72.5248 101.2587,-56.2524 85.0593,-42.8568"/>
<polygon fill="#000000" stroke="#000000" points="86.8854,-39.8251 76.9485,-36.1497 82.4245,-45.2197 86.8854,-39.8251"/>
<text text-anchor="middle" x="130" y="-57.4" font-family="Helvetica,sans-Serif" font-size="12.00" fill="#000000">HTTP</text>
</g>
<!-- syslog -->
<g id="node6" class="node">
<title>syslog</title>
<polygon fill="#f0f8ff" stroke="#000000" points="190,-36 128,-36 128,0 190,0 190,-36"/>
<text text-anchor="middle" x="159" y="-14.3" font-family="Helvetica,sans-Serif" font-size="14.00" fill="#000000">syslog</text>
</g>
<!-- Fluentd&#45;&gt;syslog -->
<g id="edge5" class="edge">
<title>Fluentd&#45;&gt;syslog</title>
<path fill="none" stroke="#000000" d="M159,-84.9138C159,-73.5477 159,-58.9131 159,-46.23"/>
<polygon fill="#000000" stroke="#000000" points="162.5001,-46.1497 159,-36.1497 155.5001,-46.1497 162.5001,-46.1497"/>
<text text-anchor="middle" x="185" y="-57.4" font-family="Helvetica,sans-Serif" font-size="12.00" fill="#000000">UDP/TCP</text>
</g>
<!-- Kafka -->
<g id="node7" class="node">
<title>Kafka</title>
<polygon fill="#f0f8ff" stroke="#000000" points="265.5,-36 208.5,-36 208.5,0 265.5,0 265.5,-36"/>
<text text-anchor="middle" x="237" y="-14.3" font-family="Helvetica,sans-Serif" font-size="14.00" fill="#000000">Kafka</text>
</g>
<!-- Fluentd&#45;&gt;Kafka -->
<g id="edge6" class="edge">
<title>Fluentd&#45;&gt;Kafka</title>
<path fill="none" stroke="#000000" d="M194.6174,-84.8549C201.9991,-79.7502 209.2646,-73.7479 215,-67 220.2909,-60.7751 224.537,-53.0721 227.8338,-45.6317"/>
<polygon fill="#000000" stroke="#000000" points="231.1629,-46.7328 231.6289,-36.1482 224.664,-44.132 231.1629,-46.7328"/>
<text text-anchor="middle" x="234.5" y="-57.4" font-family="Helvetica,sans-Serif" font-size="12.00" fill="#000000">TCP</text>
</g>
</g>
</svg>
