<?xml version="1.0" encoding="UTF-8" standalone="no"?>
<!DOCTYPE svg PUBLIC "-//W3C//DTD SVG 1.1//EN"
 "http://www.w3.org/Graphics/SVG/1.1/DTD/svg11.dtd">
<!-- Generated by graphviz version 2.44.0 (0)
 -->
<!-- Pages: 1 -->
<svg width="261pt" height="376pt"
 viewBox="0.00 0.00 261.00 376.25" xmlns="http://www.w3.org/2000/svg" xmlns:xlink="http://www.w3.org/1999/xlink">
<g id="graph0" class="graph" transform="scale(1 1) rotate(0) translate(4 372.25)">
<polygon fill="white" stroke="transparent" points="-4,4 -4,-372.25 257,-372.25 257,4 -4,4"/>
<g id="clust1" class="cluster">
<title>cluster_node</title>
<polygon fill="none" stroke="black" points="59,-77 59,-360.25 245,-360.25 245,-77 59,-77"/>
<text text-anchor="middle" x="152" y="-343.45" font-family="helvetica" font-size="16.00">Node</text>
</g>
<!-- Logs -->
<g id="node1" class="node">
<title>Logs</title>
<path fill="beige" stroke="black" d="M185.5,-219.6C185.5,-222.24 166.9,-224.38 144,-224.38 121.1,-224.38 102.5,-222.24 102.5,-219.6 102.5,-219.6 102.5,-176.65 102.5,-176.65 102.5,-174.01 121.1,-171.87 144,-171.87 166.9,-171.87 185.5,-174.01 185.5,-176.65 185.5,-176.65 185.5,-219.6 185.5,-219.6"/>
<path fill="none" stroke="black" d="M185.5,-219.6C185.5,-216.97 166.9,-214.83 144,-214.83 121.1,-214.83 102.5,-216.97 102.5,-219.6"/>
<text text-anchor="middle" x="144" y="-201.93" font-family="helvetica" font-size="14.00">Node Logs</text>
<text text-anchor="middle" x="144" y="-186.93" font-family="helvetica" font-size="14.00">/var/log/...</text>
</g>
<!-- Fluentd -->
<g id="node4" class="node">
<title>Fluentd</title>
<polygon fill="cyan" stroke="black" points="193,-123 95,-123 95,-85 193,-85 193,-123"/>
<text text-anchor="middle" x="144" y="-107.8" font-family="helvetica" font-size="14.00">Fluentd</text>
<text text-anchor="middle" x="144" y="-92.8" font-family="helvetica" font-size="14.00">(DaemonSet)</text>
</g>
<!-- Logs&#45;&gt;Fluentd -->
<g id="edge3" class="edge">
<title>Logs&#45;&gt;Fluentd</title>
<path fill="none" stroke="black" d="M144,-171.95C144,-160 144,-145.67 144,-133.34"/>
<polygon fill="black" stroke="black" points="147.5,-133.13 144,-123.13 140.5,-133.13 147.5,-133.13"/>
<text text-anchor="middle" x="156.5" y="-144.4" font-family="helvetica" font-size="12.00">read</text>
</g>
<!-- Container -->
<g id="node2" class="node">
<title>Container</title>
<polygon fill="cyan" stroke="black" points="236.5,-326.25 153.5,-326.25 153.5,-273.25 236.5,-273.25 236.5,-326.25"/>
<text text-anchor="middle" x="195" y="-311.05" font-family="helvetica" font-size="14.00">Application</text>
<text text-anchor="middle" x="195" y="-296.05" font-family="helvetica" font-size="14.00">Container</text>
<text text-anchor="middle" x="195" y="-281.05" font-family="helvetica" font-size="14.00">(CRI&#45;O)</text>
</g>
<!-- Container&#45;&gt;Logs -->
<g id="edge1" class="edge">
<title>Container&#45;&gt;Logs</title>
<path fill="none" stroke="black" d="M181.87,-273.09C175.69,-261.03 168.24,-246.48 161.59,-233.48"/>
<polygon fill="black" stroke="black" points="164.59,-231.66 156.91,-224.35 158.35,-234.85 164.59,-231.66"/>
<text text-anchor="middle" x="186" y="-245.65" font-family="helvetica" font-size="12.00">write</text>
</g>
<!-- Journald -->
<g id="node3" class="node">
<title>Journald</title>
<polygon fill="aliceblue" stroke="black" points="135,-317.75 67,-317.75 67,-281.75 135,-281.75 135,-317.75"/>
<text text-anchor="middle" x="101" y="-296.05" font-family="helvetica" font-size="14.00">Journald</text>
</g>
<!-- Journald&#45;&gt;Logs -->
<g id="edge2" class="edge">
<title>Journald&#45;&gt;Logs</title>
<path fill="none" stroke="black" d="M108.49,-281.4C114.11,-268.38 121.99,-250.12 128.9,-234.11"/>
<polygon fill="black" stroke="black" points="132.3,-235.07 133.05,-224.5 125.87,-232.29 132.3,-235.07"/>
<text text-anchor="middle" x="139" y="-245.65" font-family="helvetica" font-size="12.00">write</text>
</g>
<!-- es -->
<g id="node5" class="node">
<title>es</title>
<polygon fill="aliceblue" stroke="black" points="98,-36 0,-36 0,0 98,0 98,-36"/>
<text text-anchor="middle" x="49" y="-14.3" font-family="helvetica" font-size="14.00">Elasticsearch</text>
</g>
<!-- Fluentd&#45;&gt;es -->
<g id="edge4" class="edge">
<title>Fluentd&#45;&gt;es</title>
<path fill="none" stroke="black" d="M123.39,-84.77C109.45,-72.45 90.9,-56.05 75.81,-42.71"/>
<polygon fill="black" stroke="black" points="78.09,-40.05 68.28,-36.05 73.45,-45.29 78.09,-40.05"/>
<text text-anchor="middle" x="118.5" y="-57.4" font-family="helvetica" font-size="12.00">HTTP</text>
</g>
<!-- syslog -->
<g id="node6" class="node">
<title>syslog</title>
<polygon fill="aliceblue" stroke="black" points="171.5,-36 116.5,-36 116.5,0 171.5,0 171.5,-36"/>
<text text-anchor="middle" x="144" y="-14.3" font-family="helvetica" font-size="14.00">syslog</text>
</g>
<!-- Fluentd&#45;&gt;syslog -->
<g id="edge5" class="edge">
<title>Fluentd&#45;&gt;syslog</title>
<path fill="none" stroke="black" d="M144,-84.77C144,-73.46 144,-58.73 144,-46.07"/>
<polygon fill="black" stroke="black" points="147.5,-46.05 144,-36.05 140.5,-46.05 147.5,-46.05"/>
<text text-anchor="middle" x="171.5" y="-57.4" font-family="helvetica" font-size="12.00">UDP/TCP</text>
</g>
<!-- Kafka -->
<g id="node7" class="node">
<title>Kafka</title>
<polygon fill="aliceblue" stroke="black" points="249,-36 195,-36 195,0 249,0 249,-36"/>
<text text-anchor="middle" x="222" y="-14.3" font-family="helvetica" font-size="14.00">Kafka</text>
</g>
<!-- Fluentd&#45;&gt;Kafka -->
<g id="edge6" class="edge">
<title>Fluentd&#45;&gt;Kafka</title>
<path fill="none" stroke="black" d="M179,-84.87C186.59,-79.81 194.09,-73.81 200,-67 205.29,-60.91 209.54,-53.33 212.84,-46.01"/>
<polygon fill="black" stroke="black" points="216.24,-46.93 216.77,-36.35 209.76,-44.3 216.24,-46.93"/>
<text text-anchor="middle" x="220.5" y="-57.4" font-family="helvetica" font-size="12.00">TCP</text>
</g>
</g>
</svg>
