<?xml version="1.0" encoding="UTF-8" standalone="no"?>
<!DOCTYPE svg PUBLIC "-//W3C//DTD SVG 1.1//EN"
 "http://www.w3.org/Graphics/SVG/1.1/DTD/svg11.dtd">
<!-- Generated by graphviz version 2.40.1 (0)
 -->
<!-- Title: %3 Pages: 1 -->
<svg width="552pt" height="407pt"
 viewBox="0.00 0.00 552.00 407.49" xmlns="http://www.w3.org/2000/svg" xmlns:xlink="http://www.w3.org/1999/xlink">
<g id="graph0" class="graph" transform="scale(1 1) rotate(0) translate(4 403.4901)">
<title>%3</title>
<polygon fill="#ffffff" stroke="transparent" points="-4,4 -4,-403.4901 548,-403.4901 548,4 -4,4"/>
<g id="clust2" class="cluster">
<title>cluster_clo</title>
<polygon fill="none" stroke="#000000" points="66,-313.4901 66,-391.4901 536,-391.4901 536,-313.4901 66,-313.4901"/>
<text text-anchor="middle" x="301" y="-374.6901" font-family="Helvetica,sans-Serif" font-size="16.00" fill="#000000">Cluster Logging Operator</text>
</g>
<g id="clust3" class="cluster">
<title>cluster_elo</title>
<polygon fill="none" stroke="#000000" points="8,-204.4901 8,-282.4901 305,-282.4901 305,-204.4901 8,-204.4901"/>
<text text-anchor="middle" x="156.5" y="-265.6901" font-family="Helvetica,sans-Serif" font-size="16.00" fill="#000000">Elasticsearch Operator</text>
</g>
<!-- cl -->
<g id="node1" class="node">
<title>cl</title>
<polygon fill="#da70d6" stroke="#000000" points="260.1213,-339.4901 213.5606,-357.4901 120.4394,-357.4901 73.8787,-339.4901 120.4394,-321.4901 213.5606,-321.4901 260.1213,-339.4901"/>
<text text-anchor="middle" x="167" y="-335.7901" font-family="Helvetica,sans-Serif" font-size="14.00" fill="#000000">ClusterLogging</text>
</g>
<!-- es -->
<g id="node3" class="node">
<title>es</title>
<polygon fill="#da70d6" stroke="#000000" points="181.6076,-230.4901 140.3038,-248.4901 57.6962,-248.4901 16.3924,-230.4901 57.6962,-212.4901 140.3038,-212.4901 181.6076,-230.4901"/>
<text text-anchor="middle" x="99" y="-226.7901" font-family="Helvetica,sans-Serif" font-size="14.00" fill="#000000">Elasticsearch</text>
</g>
<!-- cl&#45;&gt;es -->
<g id="edge2" class="edge">
<title>cl&#45;&gt;es</title>
<path fill="none" stroke="#000000" d="M155.4647,-320.9998C144.5554,-303.5127 128.0609,-277.073 115.712,-257.2785"/>
<polygon fill="#000000" stroke="#000000" points="118.6275,-255.3392 110.3649,-248.7074 112.6884,-259.0443 118.6275,-255.3392"/>
<text text-anchor="middle" x="167" y="-293.8901" font-family="Helvetica,sans-Serif" font-size="12.00" fill="#000000">creates</text>
</g>
<!-- kb -->
<g id="node4" class="node">
<title>kb</title>
<polygon fill="#da70d6" stroke="#000000" points="296.5645,-230.4901 272.2823,-248.4901 223.7177,-248.4901 199.4355,-230.4901 223.7177,-212.4901 272.2823,-212.4901 296.5645,-230.4901"/>
<text text-anchor="middle" x="248" y="-226.7901" font-family="Helvetica,sans-Serif" font-size="14.00" fill="#000000">Kibana</text>
</g>
<!-- cl&#45;&gt;kb -->
<g id="edge3" class="edge">
<title>cl&#45;&gt;kb</title>
<path fill="none" stroke="#000000" d="M180.759,-321.1935C185.0119,-315.5249 189.7065,-309.2543 194,-303.4901 205.5415,-287.9951 218.4092,-270.6044 228.6877,-256.6849"/>
<polygon fill="#000000" stroke="#000000" points="231.5956,-258.6389 234.718,-248.5146 225.9635,-254.482 231.5956,-258.6389"/>
<text text-anchor="middle" x="226" y="-293.8901" font-family="Helvetica,sans-Serif" font-size="12.00" fill="#000000">creates</text>
</g>
<!-- fd -->
<g id="node5" class="node">
<title>fd</title>
<polygon fill="#00ffff" stroke="#000000" points="442,-256.9901 320,-256.9901 320,-203.9901 442,-203.9901 442,-256.9901"/>
<text text-anchor="middle" x="381" y="-241.7901" font-family="Helvetica,sans-Serif" font-size="14.00" fill="#000000">Fluentd</text>
<text text-anchor="middle" x="381" y="-226.7901" font-family="Helvetica,sans-Serif" font-size="14.00" fill="#000000">Daemonset</text>
<text text-anchor="middle" x="381" y="-211.7901" font-family="Helvetica,sans-Serif" font-size="14.00" fill="#000000">(Pod per node)</text>
</g>
<!-- cl&#45;&gt;fd -->
<g id="edge4" class="edge">
<title>cl&#45;&gt;fd</title>
<path fill="none" stroke="#000000" d="M217.3162,-322.6978C245.1031,-312.5919 279.8002,-298.5789 309,-282.4901 319.2363,-276.85 329.7228,-269.9913 339.4141,-263.1299"/>
<polygon fill="#000000" stroke="#000000" points="341.653,-265.83 347.6997,-257.1301 337.5474,-260.1603 341.653,-265.83"/>
<text text-anchor="middle" x="314" y="-293.8901" font-family="Helvetica,sans-Serif" font-size="12.00" fill="#000000">creates</text>
</g>
<!-- clf -->
<g id="node2" class="node">
<title>clf</title>
<polygon fill="#da70d6" stroke="#000000" points="528.1635,-339.4901 465.5817,-357.4901 340.4183,-357.4901 277.8365,-339.4901 340.4183,-321.4901 465.5817,-321.4901 528.1635,-339.4901"/>
<text text-anchor="middle" x="403" y="-335.7901" font-family="Helvetica,sans-Serif" font-size="14.00" fill="#000000">ClusterLogForwarder</text>
</g>
<!-- clf&#45;&gt;fd -->
<g id="edge1" class="edge">
<title>clf&#45;&gt;fd</title>
<path fill="none" stroke="#000000" d="M399.268,-320.9998C396.3028,-306.3086 392.0623,-285.2987 388.4131,-267.2188"/>
<polygon fill="#000000" stroke="#000000" points="391.8123,-266.369 386.4029,-257.2592 384.9506,-267.754 391.8123,-266.369"/>
<text text-anchor="middle" x="427" y="-293.8901" font-family="Helvetica,sans-Serif" font-size="12.00" fill="#000000">configures</text>
</g>
<!-- store -->
<g id="node6" class="node">
<title>store</title>
<path fill="#f5f5dc" stroke="#000000" d="M157.5,-150.3429C157.5,-152.9765 145.1741,-155.1157 130,-155.1157 114.8259,-155.1157 102.5,-152.9765 102.5,-150.3429 102.5,-150.3429 102.5,-107.3874 102.5,-107.3874 102.5,-104.7538 114.8259,-102.6145 130,-102.6145 145.1741,-102.6145 157.5,-104.7538 157.5,-107.3874 157.5,-107.3874 157.5,-150.3429 157.5,-150.3429"/>
<path fill="none" stroke="#000000" d="M157.5,-150.3429C157.5,-147.7093 145.1741,-145.57 130,-145.57 114.8259,-145.57 102.5,-147.7093 102.5,-150.3429"/>
<text text-anchor="middle" x="130" y="-132.6651" font-family="Helvetica,sans-Serif" font-size="14.00" fill="#000000">Log</text>
<text text-anchor="middle" x="130" y="-117.6651" font-family="Helvetica,sans-Serif" font-size="14.00" fill="#000000">Store</text>
</g>
<!-- es&#45;&gt;store -->
<g id="edge5" class="edge">
<title>es&#45;&gt;store</title>
<path fill="none" stroke="#000000" d="M104.5422,-212.3216C108.5515,-199.178 114.1024,-180.981 118.9979,-164.9324"/>
<polygon fill="#000000" stroke="#000000" points="122.3717,-165.8681 121.9417,-155.282 115.6762,-163.8256 122.3717,-165.8681"/>
<text text-anchor="middle" x="141.5" y="-176.3901" font-family="Helvetica,sans-Serif" font-size="12.00" fill="#000000">controls</text>
</g>
<!-- ui -->
<g id="node7" class="node">
<title>ui</title>
<ellipse fill="#f0f8ff" stroke="#000000" cx="204" cy="-26.8701" rx="84.2917" ry="26.7407"/>
<text text-anchor="middle" x="204" y="-30.6701" font-family="Helvetica,sans-Serif" font-size="14.00" fill="#000000">Kibana</text>
<text text-anchor="middle" x="204" y="-15.6701" font-family="Helvetica,sans-Serif" font-size="14.00" fill="#000000">User Interface</text>
</g>
<!-- kb&#45;&gt;ui -->
<g id="edge6" class="edge">
<title>kb&#45;&gt;ui</title>
<path fill="none" stroke="#000000" d="M247.3597,-212.4738C245.8906,-182.6082 241.1349,-121.2305 226,-71.7401 225.0906,-68.7663 224.0045,-65.7456 222.8091,-62.7494"/>
<polygon fill="#000000" stroke="#000000" points="225.9132,-61.1119 218.701,-53.3507 219.4991,-63.9154 225.9132,-61.1119"/>
<text text-anchor="middle" x="269" y="-125.7651" font-family="Helvetica,sans-Serif" font-size="12.00" fill="#000000">provides</text>
</g>
<!-- ui&#45;&gt;store -->
<g id="edge7" class="edge">
<title>ui&#45;&gt;store</title>
<path fill="none" stroke="#000000" d="M184.8168,-53.3105C175.596,-66.0196 164.4359,-81.4017 154.5985,-94.9608"/>
<polygon fill="#000000" stroke="#000000" points="151.7129,-92.978 148.6733,-103.1275 157.3788,-97.0887 151.7129,-92.978"/>
<text text-anchor="middle" x="197" y="-75.1401" font-family="Helvetica,sans-Serif" font-size="12.00" fill="#000000">browses</text>
</g>
</g>
</svg>
